<svg width="60" height="65" viewBox="0 0 60 65" fill="none" xmlns="http://www.w3.org/2000/svg">
<path d="M0 23C0 18.5817 3.58172 15 8 15H9C13.4183 15 17 18.5817 17 23V57C17 61.4183 13.4183 65 9 65H8C3.58172 65 0 61.4183 0 57V23Z" fill="white"/>
<path d="M43 23C43 18.5817 46.5817 15 51 15H52C56.4183 15 60 18.5817 60 23V57C60 61.4183 56.4183 65 52 65H51C46.5817 65 43 61.4183 43 57V23Z" fill="white"/>
<path d="M21 8C21 3.58172 24.5817 0 29 0H31C35.4183 0 39 3.58172 39 8V42C39 46.4183 35.4183 50 31 50H29C24.5817 50 21 46.4183 21 42V8Z" fill="white"/>
<path d="M8 16H9C12.866 16 16 19.134 16 23V57C16 60.866 12.866 64 9 64H8C4.13401 64 1 60.866 1 57V23C1 19.134 4.13401 16 8 16ZM51 16H52C55.866 16 59 19.134 59 23V57C59 60.866 55.866 64 52 64H51C47.134 64 44 60.866 44 57V23C44 19.134 47.134 16 51 16ZM29 1H31C34.866 1 38 4.13401 38 8V42C38 45.866 34.866 49 31 49H29C25.134 49 22 45.866 22 42V8C22 4.13401 25.134 1 29 1Z" stroke="black" stroke-width="2"/>
</svg>
